TITLE ""
FILE "Step3_Track36.mp3" MP3
  TRACK 01 AUDIO
    TITLE "Step3_Track36_01"
    INDEX 01 00:00:00
  TRACK 02 AUDIO
    TITLE "Step3_Track36_02"
    INDEX 01 00:00:24
  TRACK 03 AUDIO
    TITLE "Step3_Track36_03"
    INDEX 01 00:02:03
  TRACK 04 AUDIO
    TITLE "Step3_Track36_04"
    INDEX 01 00:02:52
  TRACK 05 AUDIO
    TITLE "Step3_Track36_05"
    INDEX 01 00:03:50
  TRACK 06 AUDIO
    TITLE "Step3_Track36_06"
    INDEX 01 00:03:71
  TRACK 07 AUDIO
    TITLE "Step3_Track36_07"
    INDEX 01 00:06:19
  TRACK 08 AUDIO
    TITLE "Step3_Track36_08"
    INDEX 01 00:06:48
  TRACK 09 AUDIO
    TITLE "Step3_Track36_09"
    INDEX 01 00:07:44
  TRACK 10 AUDIO
    TITLE "Step3_Track36_10"
    INDEX 01 00:07:51
  TRACK 11 AUDIO
    TITLE "Step3_Track36_11"
    INDEX 01 00:09:56
  TRACK 12 AUDIO
    TITLE "Step3_Track36_12"
    INDEX 01 00:10:07
  TRACK 13 AUDIO
    TITLE "Step3_Track36_13"
    INDEX 01 00:11:02
  TRACK 14 AUDIO
    TITLE "Step3_Track36_14"
    INDEX 01 00:11:12
  TRACK 15 AUDIO
    TITLE "Step3_Track36_15"
    INDEX 01 00:13:50
  TRACK 16 AUDIO
    TITLE "Step3_Track36_16"
    INDEX 01 00:13:66
  TRACK 17 AUDIO
    TITLE "Step3_Track36_17"
    INDEX 01 00:14:59
  TRACK 18 AUDIO
    TITLE "Step3_Track36_18"
    INDEX 01 00:14:71
  TRACK 19 AUDIO
    TITLE "Step3_Track36_19"
    INDEX 01 00:18:04
  TRACK 20 AUDIO
    TITLE "Step3_Track36_20"
    INDEX 01 00:18:42
  TRACK 21 AUDIO
    TITLE "Step3_Track36_21"
    INDEX 01 00:19:33
  TRACK 22 AUDIO
    TITLE "Step3_Track36_22"
    INDEX 01 00:19:43
  TRACK 23 AUDIO
    TITLE "Step3_Track36_23"
    INDEX 01 00:21:42
  TRACK 24 AUDIO
    TITLE "Step3_Track36_24"
    INDEX 01 00:21:59
  TRACK 25 AUDIO
    TITLE "Step3_Track36_25"
    INDEX 01 00:22:59
  TRACK 26 AUDIO
    TITLE "Step3_Track36_26"
    INDEX 01 00:22:73
  TRACK 27 AUDIO
    TITLE "Step3_Track36_27"
    INDEX 01 00:25:26
  TRACK 28 AUDIO
    TITLE "Step3_Track36_28"
    INDEX 01 00:25:46
  TRACK 29 AUDIO
    TITLE "Step3_Track36_29"
    INDEX 01 00:26:47
  TRACK 30 AUDIO
    TITLE "Step3_Track36_30"
    INDEX 01 00:26:49
  TRACK 31 AUDIO
    TITLE "Step3_Track36_31"
    INDEX 01 00:29:73
  TRACK 32 AUDIO
    TITLE "Step3_Track36_32"
    INDEX 01 00:30:31
  TRACK 33 AUDIO
    TITLE "Step3_Track36_33"
    INDEX 01 00:31:21
  TRACK 34 AUDIO
    TITLE "Step3_Track36_34"
    INDEX 01 00:31:30
  TRACK 35 AUDIO
    TITLE "Step3_Track36_35"
    INDEX 01 00:33:35
  TRACK 36 AUDIO
    TITLE "Step3_Track36_36"
    INDEX 01 00:33:53
  TRACK 37 AUDIO
    TITLE "Step3_Track36_37"
    INDEX 01 00:34:54
  TRACK 38 AUDIO
    TITLE "Step3_Track36_38"
    INDEX 01 00:34:74
  TRACK 39 AUDIO
    TITLE "Step3_Track36_39"
    INDEX 01 00:37:49
  TRACK 40 AUDIO
    TITLE "Step3_Track36_40"
    INDEX 01 00:37:60
  TRACK 41 AUDIO
    TITLE "Step3_Track36_41"
    INDEX 01 00:38:56
  TRACK 42 AUDIO
    TITLE "Step3_Track36_42"
    INDEX 01 00:38:70
  TRACK 43 AUDIO
    TITLE "Step3_Track36_43"
    INDEX 01 00:40:69
